<?xml version="1.0" encoding="UTF-8"?>
<svg width="33px" height="32px" viewBox="0 0 33 32" version="1.1" xmlns="http://www.w3.org/2000/svg" xmlns:xlink="http://www.w3.org/1999/xlink">
    <!-- Generator: Sketch 59.1 (86144) - https://sketch.com -->
    <title>Fill 51</title>
    <desc>Created with Sketch.</desc>
    <g id="Page-1" stroke="none" stroke-width="1" fill="none" fill-rule="evenodd">
        <g id="Desktop-HD" transform="translate(-1328.000000, -232.000000)" fill="#FFFFFE">
            <g id="nav" transform="translate(1248.000000, 40.000000)">
                <path d="M96.288,192.25 C87.294,192.25 80,199.543 80,208.54 C80,215.737 84.667,221.842 91.14,223.996 C91.955,224.146 92.252,223.643 92.252,223.211 C92.252,222.824 92.238,221.8 92.23,220.441 C87.699,221.425 86.743,218.257 86.743,218.257 C86.002,216.375 84.934,215.874 84.934,215.874 C83.455,214.864 85.046,214.884 85.046,214.884 C86.681,214.999 87.541,216.563 87.541,216.563 C88.994,219.052 91.354,218.333 92.282,217.916 C92.43,216.864 92.851,216.146 93.316,215.739 C89.699,215.328 85.896,213.93 85.896,207.688 C85.896,205.91 86.531,204.455 87.573,203.317 C87.405,202.905 86.846,201.248 87.733,199.006 C87.733,199.006 89.1,198.568 92.212,200.676 C93.511,200.314 94.905,200.134 96.29,200.127 C97.674,200.134 99.067,200.314 100.368,200.676 C103.478,198.568 104.843,199.006 104.843,199.006 C105.732,201.248 105.173,202.905 105.006,203.317 C106.05,204.455 106.68,205.91 106.68,207.688 C106.68,213.946 102.871,215.323 99.243,215.726 C99.827,216.229 100.348,217.223 100.348,218.742 C100.348,220.92 100.328,222.677 100.328,223.211 C100.328,223.647 100.622,224.154 101.448,223.995 C107.916,221.836 112.579,215.735 112.579,208.54 C112.579,199.543 105.285,192.25 96.288,192.25" id="Fill-51"></path>
            </g>
        </g>
    </g>
</svg>