<?xml version="1.0" encoding="UTF-8"?>
<svg width="28px" height="35px" viewBox="0 0 28 35" version="1.1" xmlns="http://www.w3.org/2000/svg" xmlns:xlink="http://www.w3.org/1999/xlink">
    <!-- Generator: Sketch 59.1 (86144) - https://sketch.com -->
    <title>iconfinder_Ruby_on_Rails_2_282804</title>
    <desc>Created with Sketch.</desc>
    <g id="Page-1" stroke="none" stroke-width="1" fill="none" fill-rule="evenodd">
        <g id="Desktop-HD" transform="translate(-757.000000, -821.000000)" fill="#FFFFFF" fill-rule="nonzero">
            <g id="Ruby-on-Rails" transform="translate(757.000000, 821.000000)">
                <g id="iconfinder_Ruby_on_Rails_2_282804">
                    <g id="layer7" transform="translate(1.000000, 28.000000)">
                        <path d="M0.157591837,0.145833333 L0.157591837,6.89966667 L1.7244898,6.89966667 L1.7244898,5.140625 L3.1505102,6.70833333 L5.55471429,6.70833333 L3.64769388,4.61183333 C3.64769388,4.61183333 5.01959184,4.58733333 5.12332653,2.40625 C5.12332653,0.405125 3.74983673,0.145833333 2.16357143,0.145833333 L0.157591837,0.145833333 Z M1.79904082,1.97779167 L3.1505102,1.97779167 L3.1505102,3.18091667 L1.79904082,3.18091667 L1.79904082,1.97779167 Z" id="path3993"></path>
                        <path d="M8.58106122,0.17325 C7.72306122,0.167708333 6.53316327,0.255208333 6.53316327,2.032625 L6.53316327,6.72670833 L8.14144898,6.72670833 L8.14144898,5.578125 L9.70012245,5.578125 L9.70012245,6.69929167 L11.316898,6.69929167 L11.316898,1.77741667 C11.316898,0.233625 9.75663265,0.17325 8.92091837,0.17325 C8.81638776,0.17325 8.70363265,0.174125 8.58106122,0.17325 Z M8.16638776,1.86841667 L9.67544898,1.86841667 L9.67544898,3.71875 L8.16638776,3.71875 L8.16638776,1.86841667 Z" id="path3997"></path>
                        <rect id="rect4001" x="12.9283673" y="0.177625" width="1.664" height="6.461"></rect>
                        <polygon id="path4003" points="16.3351633 0.263375 16.3351633 6.724375 20.3396939 6.724375 20.3396939 5.00908333 17.9734286 5.00908333 17.9734286 0.234791667"></polygon>
                        <path d="M25.6447551,0.206208333 L25.6447551,1.95008333 L22.9662245,1.95008333 L22.9662245,2.57891667 C22.9662245,2.57891667 23.5124898,2.57891667 24.1102245,2.57891667 C24.7079592,2.57891667 25.9564898,2.55033333 25.9564898,4.60891667 C25.9564898,6.66720833 25.0984898,6.78154167 23.3562245,6.78154167 C21.6136939,6.78154167 21.2499592,6.78154167 21.2499592,6.78154167 L21.2499592,5.208875 C21.2499592,5.208875 22.9402245,5.208875 23.6682245,5.208875 C24.3962245,5.208875 24.436551,4.948125 24.436551,4.72120833 C24.436551,4.49429167 24.0643265,4.38841667 23.3071429,4.38841667 C22.5499592,4.38841667 21.1459592,3.9795 21.1459592,2.37854167 C21.1459592,0.777583333 21.8739592,0.177041667 23.3302245,0.177041667 C24.7864898,0.177041667 25.6447551,0.206208333 25.6447551,0.206208333 L25.6447551,0.206208333 Z" id="path4005"></path>
                    </g>
                    <g id="layer6">
                        <path d="M3.13496296,26.9856 L16.6542963,26.9856 C16.6542963,26.9856 13.6557037,20.2307143 14.4179259,14.0304857 C15.1804074,7.83025714 20.1102222,5.00708571 22.9055556,4.70468571 C25.7006296,4.40202857 27.2255926,6.11614286 27.2255926,6.11614286 L27.8356296,5.20868571 C27.8356296,5.20868571 23.8204815,1.17591429 18.737963,1.62977143 C13.6554444,2.08337143 10.1487037,5.41028571 7.96340741,9.44305714 C5.77785185,13.4760857 4.50722222,16.2987429 3.64337037,20.5331143 C2.77951852,24.7674857 3.13496296,26.9856 3.13496296,26.9856 Z" id="path3966"></path>
                        <polygon id="path3968" points="0.441518519 20.2307143 3.08440741 20.4323143 2.62681481 23.0533714 0.13662963 22.7509714"></polygon>
                        <polygon id="path3970" points="4.60911111 14.6856857 5.32077778 12.7198286 2.98277778 11.8123714 2.22055556 13.9294286"></polygon>
                        <polygon id="path3972" points="7.91259259 7.9308 9.28485185 6.318 7.50607407 5.15854286 6.083 6.72094286"></polygon>
                        <polygon id="path3974" points="11.520963 1.68017143 12.7407778 3.14202857 14.4179259 2.18417143 13.1981111 0.823114286"></polygon>
                        <polygon id="path3976" points="17.4675926 0.0167142857 17.7724815 1.47882857 19.8564074 1.42842857 19.6528889 0.117771429"></polygon>
                        <polygon id="path3978" points="24.5321481 1.57937143 24.4813333 2.48657143 25.9044074 3.24257143 26.2092963 2.78897143"></polygon>
                        <polygon id="path3980" points="24.227 5.46094286 24.227 6.21694286 25.5992593 6.36814286 25.5992593 5.76308571"></polygon>
                        <polygon id="path3982" points="19.8564074 6.11614286 20.517 7.32574286 21.4827407 6.56974286 21.2794815 5.76308571"></polygon>
                        <polygon id="path3984" points="17.7722222 7.67905714 18.7887778 9.19131429 18.1787407 10.2497143 16.7048519 8.63691429"></polygon>
                        <polygon id="path3986" points="15.7396296 11.8627714 15.0787778 13.1734286 16.8067407 14.6355429 17.2132593 12.9718286"></polygon>
                        <polygon id="path3988" points="15.027963 16.4499429 14.9263333 18.2142 17.0608148 19.1216571 16.9591852 17.4579429"></polygon>
                        <polygon id="path3990" points="15.6377407 22.7008286 16.1461481 24.5157429 18.8395926 24.6669429 17.8738519 22.7008286"></polygon>
                    </g>
                </g>
            </g>
        </g>
    </g>
</svg>