<?xml version="1.0" encoding="UTF-8"?>
<svg width="39px" height="35px" viewBox="0 0 39 35" version="1.1" xmlns="http://www.w3.org/2000/svg" xmlns:xlink="http://www.w3.org/1999/xlink">
    <!-- Generator: Sketch 59.1 (86144) - https://sketch.com -->
    <title>iconfinder_React.js_logo_1174949</title>
    <desc>Created with Sketch.</desc>
    <g id="Page-1" stroke="none" stroke-width="1" fill="none" fill-rule="evenodd">
        <g id="Desktop-HD" transform="translate(-757.000000, -872.000000)" fill="#FFFFFF" fill-rule="nonzero">
            <g id="React" transform="translate(757.000000, 872.000000)">
                <g id="iconfinder_React.js_logo_1174949">
                    <circle id="Oval" cx="19.5" cy="17.5" r="3.5"></circle>
                    <path d="M19.506942,26 C14.6128515,26 10.3365967,25.4200873 7.13634745,24.3161572 C5.06069776,23.6034934 3.29743681,22.6532751 2.04093984,21.5703057 C0.708081168,20.4244541 0,19.1737991 0,17.9650655 C0,15.6454148 2.52687789,13.3746725 6.76842293,11.8934498 C10.239409,10.6777293 14.7655749,10 19.5,10 C24.1511214,10 28.6148095,10.6567686 32.0649697,11.8585153 C34.0850837,12.5572052 35.7858669,13.4655022 36.99377,14.4716157 C38.3058028,15.5755459 39,16.7842795 39,17.9650655 C39,20.3755459 36.1746173,22.8139738 31.6206835,24.330131 C28.3996084,25.4061135 24.0955856,26 19.506942,26 Z M19.506942,11.6768559 C15.0154859,11.6768559 10.5726237,12.3336245 7.3237807,13.4724891 C3.42239231,14.8419214 1.67301531,16.7144105 1.67301531,17.9650655 C1.67301531,19.2646288 3.55428978,21.3117904 7.67782129,22.730131 C10.7045212,23.771179 14.8002848,24.3231441 19.506942,24.3231441 C23.9220363,24.3231441 28.0386258,23.7641921 31.1000356,22.7371179 C35.3832325,21.3048035 37.3408686,19.2576419 37.3408686,17.9650655 C37.3408686,17.30131 36.8410466,16.5187773 35.9316483,15.7572052 C34.8834105,14.8768559 33.3561766,14.0733624 31.5304379,13.4375546 C28.246885,12.3056769 23.9775721,11.6768559 19.506942,11.6768559 Z" id="Shape"></path>
                    <path d="M11.0737894,35 C10.3627672,35 9.7353946,34.8458729 9.20561332,34.5376186 C7.20499189,33.3746593 6.50791126,30.0258969 7.35137883,25.5772273 C8.04148866,21.9272164 9.7284238,17.6396797 12.1054688,13.4992643 C14.4406889,9.43591246 17.242953,5.86296518 20.0103632,3.44597143 C21.6275902,2.03080407 23.2657297,0.993948781 24.7435407,0.447498019 C26.353797,-0.147993195 27.7479582,-0.147993195 28.765696,0.44049224 C30.8499671,1.64548623 31.5400769,5.34453753 30.564164,10.0804441 C29.8740542,13.443218 28.2289439,17.4995641 25.9285778,21.5138754 C23.4748539,25.7874006 20.8259475,29.2342439 18.2676616,31.4830989 C16.6086097,32.940301 14.9007621,34.0051794 13.3393015,34.5586359 C12.5237171,34.8528786 11.7569284,35 11.0737894,35 Z M12.8234618,13.919611 L13.5484257,14.3399578 C11.2968552,18.263194 9.63083251,22.4736672 8.98951832,25.8924873 C8.21575882,29.990868 8.9616351,32.4569022 10.0351393,33.0804166 C10.3000299,33.2345437 10.6485702,33.318613 11.0737894,33.318613 C12.4609799,33.318613 14.6428423,32.4358849 17.1662742,30.2220587 C19.585144,28.0993077 22.1155467,24.79258 24.47865,20.6801877 C26.6953665,16.8200035 28.2707687,12.938802 28.9260245,9.75117252 C29.8392001,5.2884913 29.051499,2.5562375 27.9291992,1.90470005 C27.3575931,1.57542844 26.4304758,1.61746311 25.3151468,2.03080407 C24.0255476,2.50719704 22.5686491,3.43896565 21.1047798,4.7210232 C18.4767858,7.01891871 15.7930253,10.4377389 13.5484257,14.3469635 L12.8234618,13.919611 Z" id="Shape"></path>
                    <path d="M26.9010681,35 C25.009147,35 22.6094675,33.8506298 20.1054542,31.6780397 C17.3093059,29.2531488 14.4644686,25.6438459 12.0856559,21.501908 L12.0856559,21.501908 C9.74857678,17.437062 8.07923455,13.2110239 7.3767197,9.58770426 C6.96633973,7.47118101 6.88982821,5.52986664 7.15414073,3.96700344 C7.44627562,2.26397314 8.13487929,1.0515277 9.1573514,0.455817516 C11.230118,-0.756627924 14.7566035,0.490859291 18.3456892,3.7076943 C20.8914361,5.98540972 23.5623837,9.44753716 25.8646848,13.4563163 C28.320009,17.7314129 29.9684845,21.7612171 30.6223102,25.1112109 C31.0466013,27.283801 31.1161573,29.3022073 30.8170668,30.9421624 C30.4971095,32.6872428 29.7737279,33.9277217 28.730389,34.5374486 C28.2087196,34.8458162 27.5896718,35 26.9010681,35 Z M13.5324192,20.6609054 C15.7860312,24.5855843 18.5821794,28.1388203 21.1974822,30.402519 C24.3344545,33.1217608 26.8245566,33.7104627 27.9026735,33.0797107 C29.0225239,32.4279337 29.8432838,29.7577504 28.9947015,25.4406036 C28.3686982,22.2728271 26.7897787,18.4182317 24.4248772,14.3043273 C22.2060431,10.4427236 19.6533406,7.12777161 17.23975,4.96919823 C13.859332,1.94158881 11.1188285,1.26177836 9.99897811,1.91355538 C9.42861952,2.24294808 9.00432837,3.07694234 8.80261618,4.254346 C8.57308162,5.6139669 8.64263755,7.35203897 9.01823955,9.26531993 C9.68597644,12.7064223 11.2857627,16.7502432 13.5324192,20.6609054 L13.5324192,20.6609054 Z" id="Shape"></path>
                </g>
            </g>
        </g>
    </g>
</svg>