<?xml version="1.0" encoding="UTF-8"?>
<svg width="33px" height="28px" viewBox="0 0 33 28" version="1.1" xmlns="http://www.w3.org/2000/svg" xmlns:xlink="http://www.w3.org/1999/xlink">
    <!-- Generator: Sketch 59.1 (86144) - https://sketch.com -->
    <title>ruby-icon</title>
    <desc>Created with Sketch.</desc>
    <g id="Page-1" stroke="none" stroke-width="1" fill="none" fill-rule="evenodd">
        <g id="Desktop-HD" transform="translate(-524.000000, -824.000000)" fill="#FFFFFF" fill-rule="nonzero">
            <g id="Ruby" transform="translate(524.000000, 824.000000)">
                <g id="ruby-icon">
                    <path d="M7.92079105,2.09002846 L7.92079105,7.33333373 C7.92079105,7.89855879 8.57338217,8.20732949 9.00322183,7.84548122 L10.4035355,6.66666711 L0.661400853,6.66666711 C0.510359791,6.66666711 0.377625067,6.71484108 0.271485536,6.79376737 L0.238914639,6.82118624 C0.212827087,6.84314731 0.189020519,6.86625995 0.167425699,6.89033099 C0.0609658297,7.0128549 -3.31128757e-05,7.17298089 0.000216605929,7.33752276 C0.00198426902,7.45421923 0.0339154874,7.56938132 0.091396453,7.67013131 L0.146070727,7.74979707 L0.174628007,7.78585727 C0.289832285,7.91460011 0.457114377,8.00000036 0.661400853,8.00000036 L8.58073561,8.00000036 L7.96799246,7.5809275 L14.2333649,23.403903 L1.17673098,6.9168704 L0.661400853,8.00000036 L9.55549548,8.00000036 L9.19347876,7.08573996 C9.09325736,6.83263439 8.85058997,6.66666711 8.58073561,6.66666711 L0.661400853,6.66666711 L1.08388707,7.84548122 L7.92079105,2.09002846 Z M16.5000704,1.53447293 L22.5966053,6.66666711 L10.4035355,6.66666711 L16.5000704,1.53447293 Z M24.4194051,8.38902082e-07 L8.58073561,8.38902082e-07 C8.42635049,8.38902082e-07 8.27685134,0.0546783156 8.1582494,0.154519976 L0.271485536,6.79376737 C0.233211019,6.82222863 0.198394846,6.85468881 0.167425699,6.89033099 C0.049858514,7.0213793 -0.0021532257,7.18083417 6.81428989e-05,7.33752276 C6.81428989e-05,7.4498539 0.0291078467,7.56424312 0.0913964543,7.67013131 L0.129912668,7.73014235 L15.9609712,27.7197818 C16.089481,27.9065934 16.2947756,28.0000008 16.5000681,28.0000008 C16.6916873,28.0000008 16.8833043,27.9165981 17.0154005,27.7497958 L17.0391696,27.7197818 C17.0678167,27.6781382 17.0926482,27.631853 17.1128135,27.5809263 L18.7667759,23.403903 L15.9847403,26.9168692 L17.0154005,26.9168692 L14.2333649,23.403903 L15.8873273,27.5809263 C15.9074926,27.631853 15.932324,27.6781382 15.9609712,27.7197818 L15.9847403,27.7497958 C16.1168365,27.9165981 16.3084535,28.0000008 16.5000681,28.0000008 C16.7053651,28.0000008 16.9106598,27.9065934 17.0391696,27.7197818 L32.8255128,7.78585727 C33.0583939,7.52560837 33.0784688,7.08824804 32.7612261,6.82118624 L24.9393118,0.236530634 C24.8380011,0.110555214 24.6921837,0.0349005355 24.537416,0.00956659966 L24.4194051,8.38902082e-07 Z M9.55549548,8.00000036 L23.4446452,8.00000036 L16.5000704,25.5382777 L9.55549548,8.00000036 Z M23.806662,7.08573996 L23.4446452,8.00000045 L24.8662094,8.00000045 L25.0321482,7.5809275 L25.0793497,7.33333379 L25.0793497,0.666667521 L23.7594606,0.666667521 L23.7594606,7.33333379 L24.8418913,6.82118624 L18.3228703,1.33333415 L24.4194051,1.33333415 L23.9969189,1.17881495 L30.51594,6.66666716 L22.5966053,6.66666716 L23.9969189,7.84548122 C24.4267586,8.20732949 25.0793497,7.89855879 25.0793497,7.33333379 L25.0793497,0.666667521 C25.0793497,0.486954795 25.0253987,0.343575852 24.9393118,0.236530634 L24.8418913,0.154519976 C24.7234974,0.0548534596 24.5743147,0.000192809578 24.4202175,4.46899914e-07 C24.0899747,-0.000363749055 23.7594606,0.22185831 23.7594606,0.666667521 L23.7594606,7.33333379 L23.806662,7.08573996 Z M24.8662094,8.00000036 L30.9656429,8.00000036 L18.7667759,23.403903 L24.8662094,8.00000036 Z M16.5000704,25.5382777 L15.8873273,27.0857388 L17.1128135,27.0857388 L16.5000704,25.5382777 Z M9.24068018,1.33333409 L14.6772705,1.33333409 L9.24068018,5.90997274 L9.24068018,1.33333409 Z"></path>
                </g>
            </g>
        </g>
    </g>
</svg>